# xmcd
#
# Track frame offsets:
#	150
#	14272
#	30805
#	51322
#	65620
#	80797
#	108567
#	125902
#	136237
#	156045
#
# Disc length: 2245 seconds
#
# Revision: 0
# Processed by: cddbd v1.5.1PL0 Copyright (c) Steve Scherf et al.
# Submitted via: audiograbber 1.83.01
#
DISCID=8508c30a
DTITLE=Sammy Davis Jr. - The Best Of
DYEAR=1900
DGENRE=Swing
TTITLE0=The Candy Man
TTITLE1=What Kind Of Fool Am I?
TTITLE2=Gonna Build A Mountain
TTITLE3=Bye Bye Blackbird
TTITLE4=Lady Is A Tramp
TTITLE5=Rock-A-Bye Your Baby (With A Dixie Melody)
TTITLE6=Mr. Bojangles
TTITLE7=I've Gotta Be Me
TTITLE8=The Birth Of The Blues
TTITLE9=Talk To The Animals
EXTD=
EXTT0=
EXTT1=
EXTT2=
EXTT3=
EXTT4=
EXTT5=
EXTT6=
EXTT7=
EXTT8=
EXTT9=
PLAYORDER=
